<svg width="59" height="59" viewBox="0 0 59 59" fill="none" xmlns="http://www.w3.org/2000/svg">
<g clip-path="url(#clip0)">
<path d="M58.9423 17.3462C58.8041 14.2113 58.2971 12.056 57.5709 10.1885C56.8217 8.2062 55.6692 6.43142 54.1591 4.95605C52.6838 3.45771 50.8973 2.29343 48.9379 1.55597C47.0596 0.829759 44.9156 0.322809 41.7807 0.184591C38.6224 0.0346671 37.6198 0 29.6094 0C21.5991 0 20.5964 0.0346671 17.4498 0.172885C14.3149 0.311104 12.1597 0.818504 10.2926 1.54426C8.30984 2.29343 6.53506 3.446 5.05968 4.95605C3.56135 6.43142 2.39752 8.21791 1.65961 10.1773C0.933397 12.056 0.426447 14.1996 0.288229 17.3345C0.138305 20.4928 0.103638 21.4954 0.103638 29.5058C0.103638 37.5161 0.138305 38.5188 0.276523 41.6654C0.414741 44.8003 0.922142 46.9555 1.64835 48.823C2.39752 50.8053 3.56135 52.5801 5.05968 54.0555C6.53506 55.5538 8.32155 56.7181 10.2809 57.4555C12.1597 58.1818 14.3032 58.6887 17.4385 58.8269C20.5847 58.9656 21.5878 58.9998 29.5982 58.9998C37.6085 58.9998 38.6112 58.9656 41.7578 58.8269C44.8927 58.6887 47.0479 58.1818 48.9149 57.4555C52.88 55.9225 56.0149 52.7876 57.548 48.823C58.2737 46.9442 58.7811 44.8003 58.9193 41.6654C59.0575 38.5188 59.0922 37.5161 59.0922 29.5058C59.0922 21.4954 59.0805 20.4928 58.9423 17.3462ZM53.6292 41.4348C53.5023 44.3163 53.0183 45.8722 52.6149 46.9095C51.6235 49.4799 49.5835 51.5198 47.0132 52.5112C45.9759 52.9146 44.4087 53.3986 41.5385 53.5251C38.4266 53.6638 37.4933 53.698 29.6211 53.698C21.749 53.698 20.804 53.6638 17.7033 53.5251C14.8219 53.3986 13.2659 52.9146 12.2286 52.5112C10.9495 52.0385 9.78522 51.2893 8.8402 50.3096C7.86052 49.3529 7.11135 48.2003 6.63861 46.9212C6.23522 45.8839 5.75123 44.3163 5.62471 41.4465C5.48605 38.3346 5.45183 37.4009 5.45183 29.5287C5.45183 21.6566 5.48605 20.7116 5.62471 17.6113C5.75123 14.7299 6.23522 13.174 6.63861 12.1366C7.11135 10.8571 7.86052 9.69328 8.85191 8.74782C9.80818 7.76813 10.9607 7.01896 12.2403 6.54668C13.2776 6.14328 14.8453 5.65929 17.715 5.53233C20.8269 5.39411 21.7607 5.35944 29.6324 5.35944C37.5162 5.35944 38.4495 5.39411 41.5502 5.53233C44.4316 5.65929 45.9876 6.14328 47.0249 6.54668C48.304 7.01896 49.4683 7.76813 50.4133 8.74782C51.393 9.70454 52.1421 10.8571 52.6149 12.1366C53.0183 13.174 53.5023 14.7412 53.6292 17.6113C53.7674 20.7233 53.8021 21.6566 53.8021 29.5287C53.8021 37.4009 53.7674 38.3229 53.6292 41.4348Z" fill="#683D83"/>
<path d="M29.6094 14.3496C21.242 14.3496 14.4531 21.1381 14.4531 29.5059C14.4531 37.8737 21.242 44.6622 29.6094 44.6622C37.9772 44.6622 44.7657 37.8737 44.7657 29.5059C44.7657 21.1381 37.9772 14.3496 29.6094 14.3496ZM29.6094 39.3374C24.1811 39.3374 19.7779 34.9347 19.7779 29.5059C19.7779 24.0771 24.1811 19.6744 29.6094 19.6744C35.0382 19.6744 39.4409 24.0771 39.4409 29.5059C39.4409 34.9347 35.0382 39.3374 29.6094 39.3374Z" fill="#683D83"/>
<path d="M48.9037 13.7502C48.9037 15.7042 47.3193 17.2885 45.3649 17.2885C43.4109 17.2885 41.8266 15.7042 41.8266 13.7502C41.8266 11.7958 43.4109 10.2119 45.3649 10.2119C47.3193 10.2119 48.9037 11.7958 48.9037 13.7502Z" fill="#683D83"/>
</g>
<defs>
<clipPath id="clip0">
<rect width="59" height="59" fill="white"/>
</clipPath>
</defs>
</svg>
