<?xml version="1.0" standalone="no"?>
<!DOCTYPE svg PUBLIC "-//W3C//DTD SVG 20010904//EN"
 "http://www.w3.org/TR/2001/REC-SVG-20010904/DTD/svg10.dtd">
<svg version="1.0" xmlns="http://www.w3.org/2000/svg"
 width="816.000000pt" height="816.000000pt" viewBox="0 0 816.000000 816.000000"
 preserveAspectRatio="xMidYMid meet">
<metadata>
Created by potrace 1.14, written by Peter Selinger 2001-2017
</metadata>
<g transform="translate(0.000000,816.000000) scale(0.100000,-0.100000)"
fill="#000000" stroke="none">
<path d="M3889 8156 c-2 -2 -35 -7 -74 -11 -104 -10 -127 -13 -157 -19 -16 -3
-40 -8 -55 -11 -79 -15 -176 -38 -238 -57 -38 -12 -72 -22 -75 -23 -15 -3
-116 -39 -125 -44 -5 -3 -15 -6 -20 -7 -15 -2 -137 -58 -225 -103 -120 -62
-204 -112 -326 -196 -111 -75 -328 -272 -448 -405 -82 -91 -237 -313 -304
-435 -28 -53 -103 -201 -107 -215 -1 -3 -6 -16 -12 -30 -84 -199 -133 -376
-178 -635 -20 -120 -28 -596 -12 -725 7 -53 10 -74 22 -167 3 -23 8 -56 10
-72 2 -17 8 -54 13 -83 6 -29 20 -105 32 -168 21 -110 24 -122 30 -145 2 -5 7
-26 12 -45 8 -33 11 -46 22 -95 13 -53 38 -152 43 -165 3 -8 8 -23 10 -33 1
-10 12 -46 22 -80 11 -34 36 -116 56 -182 36 -119 60 -191 75 -230 4 -11 18
-49 30 -85 35 -103 120 -333 131 -353 5 -9 20 -46 34 -82 13 -36 31 -80 39
-98 8 -17 37 -84 64 -147 102 -240 296 -637 421 -863 39 -70 71 -129 71 -131
0 -5 150 -260 228 -389 38 -62 75 -123 83 -136 8 -14 17 -30 21 -35 4 -6 82
-123 173 -260 91 -136 185 -275 210 -307 25 -33 45 -64 45 -69 0 -6 4 -10 8
-10 4 0 15 -12 24 -27 9 -16 26 -39 37 -53 11 -14 55 -72 98 -130 43 -58 80
-107 83 -110 3 -3 27 -32 52 -65 25 -33 54 -70 64 -82 42 -48 54 -63 54 -68 0
-3 8 -13 18 -23 9 -10 35 -40 57 -67 60 -72 98 -118 118 -139 9 -11 17 -23 17
-28 0 -39 85 51 272 286 27 34 59 75 72 91 14 17 54 68 90 115 36 47 70 90 76
97 5 7 27 36 48 66 20 29 43 59 49 67 18 21 70 94 122 170 25 36 48 67 51 70
3 3 50 73 105 155 55 83 103 152 106 155 3 3 23 34 45 70 21 36 42 67 45 70 3
3 14 21 24 40 10 19 21 37 24 40 7 5 216 354 261 435 93 166 240 444 240 454
0 6 5 11 10 11 6 0 10 4 10 10 0 5 41 94 91 197 50 103 94 197 99 208 5 11 27
60 50 108 22 49 40 91 40 94 0 2 11 28 24 56 13 29 54 129 91 222 37 94 71
179 75 190 5 11 17 40 25 65 9 25 30 83 46 130 17 47 32 90 33 95 2 6 6 17 9
25 8 19 77 236 82 258 3 9 14 49 26 87 28 94 107 398 120 460 6 28 13 61 16
75 3 14 7 34 8 45 2 11 4 20 5 20 2 0 6 18 14 65 3 19 8 45 10 56 4 18 21 127
41 264 28 181 28 658 0 815 -2 17 -7 44 -9 60 -13 94 -48 239 -92 380 -26 82
-30 93 -58 157 -9 20 -16 39 -16 43 0 7 -118 244 -141 285 -255 436 -644 799
-1092 1018 -88 44 -290 127 -332 137 -5 1 -17 5 -25 8 -24 9 -83 26 -110 31
-14 3 -52 12 -85 20 -33 8 -76 17 -96 20 -20 3 -42 7 -50 10 -8 3 -39 8 -69
11 -30 4 -66 9 -80 11 -31 6 -465 15 -471 10z m371 -1450 c14 -3 41 -9 60 -13
41 -8 41 -8 60 -15 8 -3 33 -11 55 -18 71 -22 203 -87 277 -137 141 -93 287
-262 368 -423 32 -63 93 -230 85 -230 -3 0 0 -12 5 -26 42 -110 30 -433 -22
-579 -33 -93 -57 -148 -95 -213 -24 -41 -43 -78 -43 -83 0 -5 -3 -9 -7 -9 -5
0 -19 -17 -33 -38 -40 -60 -175 -188 -253 -241 -275 -185 -566 -238 -910 -166
-80 16 -236 83 -322 137 -220 140 -394 366 -474 618 -36 115 -44 175 -45 325
-1 160 11 235 56 370 67 199 220 408 388 531 66 48 197 124 214 124 7 0 16 4
21 8 23 20 184 67 269 79 22 3 42 7 44 8 6 5 276 -3 302 -9z"/>
</g>
</svg>
